<?xml version="1.0" encoding="utf-8"?>
<!-- Generator: Adobe Illustrator 27.1.1, SVG Export Plug-In . SVG Version: 6.00 Build 0)  -->
<svg version="1.1" id="Layer_1" xmlns="http://www.w3.org/2000/svg" xmlns:xlink="http://www.w3.org/1999/xlink" x="0px" y="0px"
	 viewBox="0 0 595 841" style="enable-background:new 0 0 595 841;" xml:space="preserve">
<style type="text/css">
	.st0{fill:none;stroke:#000000;stroke-width:0.6518;stroke-linecap:round;stroke-miterlimit:2.6073;}
</style>
<g transform="translate(20, 20) scale(1 1) translate(0, 0) scale(0.6518287091596316 0.6518287091596316) translate(-21.921262741088867, 0) scale(1 1) ">
	<path class="st0" d="M32.4,44.5l0,0.8l-0.1,1.4l-0.1,1.8l-0.1,1.9l-0.1,1.9L32,54.2l-0.1,1.7l0,1.5l0,1.2l0.1,0.8l0.1,0.4l0.1,0.1
		 M29.2,42.5l0.6-0.1l1.1-0.1l1.6,0l2,0.3l2.3,0.6l2.5,0.9l2.6,1.3l2.6,1.5l2.4,1.5l2.1,1.5l1.6,1.5l1,1.5l0.3,1.5l-0.5,1.5
		l-1.2,1.4l-1.9,1.1l-2.5,0.8l-2.9,0.3l-3.2-0.3L36,58.5l-3.3-0.8l-3.1-1.2l-2.7-1.3l-2.2-1.4l-1.4-1.4L22.8,51l0-1l0.3-0.6
		 M55.1,53.5l0.6-0.1l0.9-0.2l1-0.4l0.9-0.5l0.7-0.6l0.4-0.6l0.1-0.6l-0.2-0.5l-0.6-0.3L58,49.7l-1.1,0.2l-1.2,0.4L54.4,51l-1.1,0.9
		L52.5,53L52,54.2l0,1.3l0.5,1.2l1,1.1l1.5,0.9l1.9,0.7l2.2,0.5l1.9,0.3l1.3,0.1 M74.4,50.3L74,50l-0.9-0.3l-1.2-0.1l-1.5,0.3
		l-1.5,0.8l-1.5,1.1l-1.3,1.3l-1,1.3l-0.5,1.3l-0.1,1.3L65,58l0.8,0.8l1.2,0.5l1.4,0.1l1.5-0.3l1.4-0.7l1.3-1.1l1.1-1.3l0.8-1.3
		l0.6-1.1l0.3-0.9l0.2-0.5l0-0.1l0,0.3l0,0.8l0.1,1.2l0.2,1.4l0.5,1.5l0.8,1.3l1,1l1,0.6l0.7,0.3 M83.8,52.9l-0.1,0.5l-0.1,0.8
		l-0.1,1.1l-0.1,1.1l0,0.9l0,0.7l0,0.4l0,0.1l-0.1-0.3l-0.1-0.6l0-0.9l0-1.2l0.1-1.3l0.3-1.3l0.5-1.2l0.8-1l1.1-0.8l1.4-0.6l1.7-0.3
		l1.8,0l1.9,0.3l2,0.5l1.9,0.7l1.8,0.6l1.5,0.5l1.3,0.3l0.9,0.1l0.5,0.1 M124.7,57.8L125,57l0.5-1.4l0.6-1.9l0.7-2l0.7-2.1l0.7-2.1
		l0.6-2l0.6-1.7l0.5-1.4l0.4-0.9l0.3-0.4l0.2,0.2l0.2,0.7l0.2,1.3l0.3,1.9l0.3,2.3l0.3,2.6l0.3,2.6l0.3,2.6l0.3,2.4l0.2,1.9l0.1,1.3
		l0.1,0.8l0,0.3 M127,51.3l0.5-0.2l1-0.2l1.4-0.2l1.8-0.1l2.1,0l2.2,0l1.8,0l1.2,0 M143.6,52l-0.1,0.6l-0.1,1l-0.2,1.4l-0.2,1.4
		l-0.2,1.2l-0.1,0.9l-0.1,0.5l-0.1,0.1l-0.1-0.4l0-0.9l0.1-1.2l0.2-1.4l0.4-1.4l0.7-1.3l0.9-1.2l1.1-0.9l1.3-0.6l1.4-0.2l1.5,0.2
		l1.5,0.5l1.4,0.8l1.2,1.1l1,1.2l0.7,1.2l0.4,1.1l0.2,0.9l0,0.6l-0.1,0.3l-0.2,0l-0.2-0.3l-0.1-0.6l0-0.8l0.2-1l0.4-1.1l0.7-1.2
		l1-1.1l1.2-0.9l1.4-0.7l1.5-0.3l1.5,0l1.5,0.4l1.3,0.8l1.2,1l1,1.1l0.8,1.2l0.6,1.2l0.6,1l0.5,0.8l0.5,0.5l0.6,0.1l0.6-0.3l0.7-0.6
		l0.7-0.9l0.7-1.1l0.6-1.1l0.5-1.1l0.4-0.9l0.2-0.6l0.1-0.2l0,0.2l-0.1,0.7l-0.1,1l-0.1,1.2l-0.1,1.3l-0.1,1.2l-0.1,0.9l-0.1,0.6
		l0,0.3l0,0.1 M175.9,45.7l0-0.2l0-0.2l0-0.2l0-0.1 M182.4,51.8l0,0.3l0.1,0.6l0.1,0.9l0.1,1l0,1l0,0.9l0,0.7l0,0.4l-0.1,0.1
		l-0.1-0.3l-0.1-0.7l-0.1-1l0-1.3l0.2-1.4l0.4-1.4l0.6-1.2l0.8-1l1.1-0.7l1.3-0.4l1.5,0l1.6,0.3l1.6,0.4l1.6,0.5l1.4,0.5l1.2,0.3
		l0.9,0.2l0.5,0.2l0.2,0.1l0,0.2l-0.2,0.4l-0.3,0.6l-0.4,0.8l-0.4,0.9l-0.4,0.9l-0.3,0.8L195,56l-0.2,0.4l-0.1,0.1l0-0.2l0.1-0.5
		l0.2-0.8l0.2-1.1l0.4-1.2l0.5-1.3l0.7-1.2l1-1l1.3-0.8l1.5-0.5l1.8-0.2l1.9,0l2,0.2l2,0.4l1.9,0.5l1.7,0.4l1.4,0.3l1.1,0.1l0.7-0.1
		l0.4-0.2l0.1-0.2l0-0.1 M216.7,58.8l-0.2,0.7l-0.4,1.1l-0.7,1.3l-1,1.2l-1.3,1.1l-1.5,0.9l-1.3,0.6l-0.8,0.4"/>
</g>
</svg>
