<?xml version="1.0" encoding="utf-8" ?>
<svg baseProfile="full" height="100%" version="1.1" viewBox="0,0,1000,300" width="100%" xmlns="http://www.w3.org/2000/svg" xmlns:ev="http://www.w3.org/2001/xml-events" xmlns:xlink="http://www.w3.org/1999/xlink"><defs /><rect fill="white" height="300" width="1000" x="0" y="0" /><path d="M0,0 M376.3476867675781,60.254539489746094 L376.20831298828125,61.454750061035156 L376.0289611816406,63.33219909667969 L375.8776550292969,65.5844955444336 L375.834716796875,67.62911224365234 L375.9188232421875,69.26530456542969 L376.10321044921875,70.36402130126953 L376.33721923828125,70.90619659423828 L376.5870361328125,70.8268814086914 L376.8115539550781,70.09068298339844 L376.9861755371094,68.6654052734375 L377.1212463378906,66.60965728759766 L377.21405029296875,64.05101776123047 L377.2833251953125,61.18081283569336 L377.3506774902344,58.208656311035156 L377.41082763671875,55.30302047729492 L377.473876953125,52.584136962890625 L377.545654296875,50.18360900878906 L377.615966796875,48.18830108642578 L377.6958312988281,46.685245513916016 L377.7874450683594,45.74357604980469 L377.9092712402344,45.40473175048828 L378.1109619140625,45.682289123535156 L378.4228515625,46.58080291748047 L378.8594970703125,48.018882751464844 L379.4140930175781,49.8585319519043 L380.0532531738281,51.89738082885742 L380.7593688964844,53.908226013183594 L381.52685546875,55.671852111816406 L382.3323974609375,57.03281784057617 L383.1588439941406,57.88418960571289 L383.9774169921875,58.17873001098633 L384.7702941894531,57.90317153930664 L385.5336608886719,57.076725006103516 L386.28948974609375,55.758113861083984 L387.050048828125,54.063541412353516 L387.82415771484375,52.1570930480957 L388.5931701660156,50.23139190673828 L389.32928466796875,48.46537780761719 L389.9859619140625,46.98847961425781 L390.5325012207031,45.88339614868164 L390.9474792480469,45.204097747802734 L391.2105712890625,45.0 L391.31378173828125,45.32086181640625 L391.2723083496094,46.21424102783203 L391.1014709472656,47.68389892578125 L390.8296203613281,49.673072814941406 L390.50750732421875,52.08977508544922 L390.1683654785156,54.81111145019531 L389.84075927734375,57.69173812866211 L389.55792236328125,60.59583282470703 L389.336181640625,63.375247955322266 L389.20550537109375,65.87369537353516 L389.20001220703125,67.95051574707031 L389.32562255859375,69.50385284423828 L389.4972229003906,70.45807647705078 L389.6445617675781,70.90554809570312 M402.6379699707031,59.27043914794922 L402.47515869140625,58.84334945678711 L402.077880859375,58.2523078918457 L401.385986328125,57.68280792236328 L400.4148864746094,57.41779327392578 L399.2386169433594,57.56147766113281 L397.9582824707031,58.1732063293457 L396.6976623535156,59.232906341552734 L395.5738830566406,60.69829559326172 L394.6932067871094,62.45056915283203 L394.1516418457031,64.32563018798828 L394.0047607421875,66.11241149902344 L394.2425537109375,67.61357879638672 L394.8345947265625,68.6639175415039 L395.709716796875,69.16592407226562 L396.76995849609375,69.06155395507812 L397.9425964355469,68.35395812988281 L399.1341247558594,67.0910873413086 L400.24273681640625,65.38237762451172 L401.2001953125,63.42097091674805 L401.94659423828125,61.47486114501953 L402.45928955078125,59.780616760253906 L402.76702880859375,58.52958297729492 L402.89886474609375,57.82075119018555 L402.8989562988281,57.67302322387695 L402.81964111328125,58.09642791748047 L402.68792724609375,59.10036849975586 L402.54132080078125,60.60505676269531 L402.4139099121094,62.479393005371094 L402.324951171875,64.5316390991211 L402.31378173828125,66.54694366455078 L402.40472412109375,68.35791015625 L402.64691162109375,69.77798461914062 L403.0638427734375,70.64801788330078 L403.6372985839844,70.90898132324219 L404.1778564453125,70.77987670898438 L404.56134033203125,70.51691436767578 M408.25238037109375,46.220787048339844 L408.334716796875,46.632896423339844 L408.4553527832031,47.529232025146484 L408.5739440917969,48.992340087890625 L408.6357421875,50.95513916015625 L408.62164306640625,53.31919860839844 L408.54656982421875,55.93828201293945 L408.4526062011719,58.654151916503906 L408.392578125,61.31064987182617 L408.38970947265625,63.717002868652344 L408.4495849609375,65.71768188476562 L408.5439453125,67.19965362548828 L408.6645202636719,68.07110595703125 L408.82086181640625,68.28445434570312 L409.0667724609375,67.83512115478516 L409.46295166015625,66.75646209716797 L410.0706787109375,65.17501068115234 L410.9093322753906,63.28167724609375 L411.95562744140625,61.25712966918945 L413.14862060546875,59.30077362060547 L414.382080078125,57.577613830566406 L415.5142517089844,56.220855712890625 L416.4298095703125,55.282344818115234 L417.05133056640625,54.75318908691406 L417.3232421875,54.571083068847656 L417.2410583496094,54.71769714355469 L416.78515625,55.198936462402344 L415.94305419921875,56.043663024902344 L414.76824951171875,57.19983673095703 L413.3752136230469,58.56978988647461 L411.90447998046875,60.038761138916016 L410.53045654296875,61.52134323120117 L409.40252685546875,62.955543518066406 L408.64154052734375,64.30677795410156 L408.33001708984375,65.53178405761719 L408.4956359863281,66.59351348876953 L409.10101318359375,67.46788787841797 L410.07611083984375,68.12123107910156 L411.32452392578125,68.51714324951172 L412.7441711425781,68.6244125366211 L414.25787353515625,68.37468719482422 L415.7574157714844,67.76049041748047 L417.133544921875,66.85285186767578 L418.15911865234375,65.97542572021484 L418.7543029785156,65.35611724853516 M419.72998046875,59.16233444213867 L419.6967468261719,59.351707458496094 L419.6326599121094,59.82014465332031 L419.54254150390625,60.658790588378906 L419.4459533691406,61.85369873046875 L419.37432861328125,63.323123931884766 L419.3481140136719,64.93218994140625 L419.3874816894531,66.49905395507812 L419.4976806640625,67.8402099609375 L419.6688232421875,68.82032012939453 L419.8347473144531,69.3838882446289 L419.9552001953125,69.6098403930664 M420.6741027832031,50.45184326171875 L420.6702575683594,50.25416564941406 L420.671142578125,50.01448059082031 L420.67547607421875,49.810298919677734 L420.681884765625,49.71912384033203 M424.6771545410156,58.52351379394531 L424.7050476074219,58.8418083190918 L424.7214660644531,59.4904899597168 L424.68988037109375,60.507198333740234 L424.5890808105469,61.819908142089844 L424.44049072265625,63.34172058105469 L424.265625,64.93209838867188 L424.0950012207031,66.44335174560547 L423.96343994140625,67.71918487548828 L423.8814697265625,68.61771392822266 L423.86279296875,69.0411376953125 L423.92132568359375,68.9217300415039 L424.0767517089844,68.2391128540039 L424.35052490234375,67.04395294189453 L424.7734680175781,65.45966339111328 L425.36956787109375,63.649322509765625 L426.1507263183594,61.80348587036133 L427.10919189453125,60.07600402832031 L428.21722412109375,58.598182678222656 L429.4202575683594,57.48250198364258 L430.65313720703125,56.813045501708984 L431.8406066894531,56.6371955871582 L432.900390625,56.975502014160156 L433.7529602050781,57.80525207519531 L434.3257751464844,59.07018280029297 L434.58489990234375,60.67991638183594 L434.55413818359375,62.511173248291016 L434.2901611328125,64.40644073486328 L433.914306640625,66.2011489868164 L433.5699462890625,67.73047637939453 L433.36846923828125,68.87239074707031 L433.3116455078125,69.56218719482422 L433.3483581542969,69.873291015625 M443.0877990722656,61.814762115478516 L443.0152282714844,61.38726043701172 L442.78350830078125,60.751800537109375 L442.3206787109375,60.059532165527344 L441.5977783203125,59.563167572021484 L440.6751708984375,59.38503646850586 L439.6465148925781,59.60593795776367 L438.635498046875,60.21088790893555 L437.7845764160156,61.158668518066406 L437.2176208496094,62.33692169189453 L437.0124206542969,63.59280014038086 L437.224609375,64.79081726074219 L437.83428955078125,65.79573059082031 L438.78717041015625,66.48519134521484 L439.99322509765625,66.77760314941406 L441.3235778808594,66.6275405883789 L442.6375732421875,66.03746032714844 L443.8194580078125,65.08688354492188 L444.7713928222656,63.88758087158203 L445.455078125,62.57479476928711 L445.86920166015625,61.304412841796875 L446.0329284667969,60.20536422729492 L445.9920654296875,59.38640594482422 L445.80987548828125,58.9362678527832 L445.54644775390625,58.92267990112305 L445.2710876464844,59.38765335083008 L445.0460205078125,60.349395751953125 L444.912841796875,61.75691223144531 L444.8986511230469,63.52388000488281 L445.0177307128906,65.5506820678711 L445.2556457519531,67.7619400024414 L445.5777587890625,70.0981216430664 L445.925537109375,72.4957046508789 L446.22412109375,74.85626220703125 L446.3941955566406,77.04789733886719 L446.3758544921875,78.95108032226562 L446.1312255859375,80.48893737792969 L445.6407775878906,81.63585662841797 L444.8995361328125,82.39788055419922 L443.9228515625,82.80018615722656 L442.75311279296875,82.85311126708984 L441.46929931640625,82.57584381103516 L440.1729431152344,81.994873046875 L438.9649658203125,81.16940307617188 L437.95196533203125,80.11752319335938 L437.2115478515625,78.9071273803711 L436.78204345703125,77.62983703613281 L436.60845947265625,76.58021545410156 L436.58905029296875,75.91238403320312 M457.55389404296875,58.933494567871094 L457.59228515625,58.94818878173828 L457.6723327636719,59.110286712646484 L457.79443359375,59.545692443847656 L457.9351806640625,60.356101989746094 L458.06121826171875,61.53586959838867 L458.1470031738281,63.023643493652344 L458.1839599609375,64.69795989990234 L458.1714782714844,66.38390350341797 L458.1383056640625,67.907470703125 L458.1072998046875,69.13436126708984 L458.08233642578125,69.94090270996094 L458.06671142578125,70.24966430664062 L458.0646667480469,70.0059814453125 L458.09442138671875,69.17401123046875 L458.21453857421875,67.79136657714844 L458.4801330566406,66.01471710205078 L458.9188537597656,64.02848052978516 L459.5326232910156,62.0541877746582 L460.27947998046875,60.27082443237305 L461.1155700683594,58.8223762512207 L461.98931884765625,57.80016326904297 L462.8607482910156,57.29792404174805 L463.690185546875,57.34617614746094 L464.430419921875,57.962562561035156 L465.026611328125,59.088890075683594 L465.4385070800781,60.6344108581543 L465.6229248046875,62.42957305908203 L465.60546875,64.28032684326172 L465.4461364746094,65.9696273803711 L465.22821044921875,67.33338928222656 L465.0372314453125,68.22605895996094 L464.9361877441406,68.57670593261719 L464.944580078125,68.34136962890625 L465.0958557128906,67.5234375 L465.405517578125,66.19782257080078 L465.8861389160156,64.54410552978516 L466.53070068359375,62.75990295410156 L467.3157958984375,61.069339752197266 L468.20269775390625,59.63755416870117 L469.138916015625,58.55818176269531 L470.065185546875,57.89218521118164 L470.927978515625,57.6966438293457 L471.67572021484375,57.982757568359375 L472.260498046875,58.755611419677734 L472.66497802734375,59.96959686279297 L472.87347412109375,61.510074615478516 L472.8983459472656,63.2201042175293 L472.7994689941406,64.89797973632812 L472.663818359375,66.32074737548828 L472.5612487792969,67.33856964111328 L472.521240234375,67.91255950927734 L472.5280456542969,68.13550567626953 M476.1480712890625,58.15884017944336 L476.1986999511719,58.439151763916016 L476.3118896484375,59.04147720336914 L476.5072937011719,59.99386215209961 L476.7811279296875,61.1843147277832 L477.1446228027344,62.47922897338867 L477.5970458984375,63.74435806274414 L478.1397399902344,64.86274719238281 L478.7933349609375,65.724853515625 L479.5396728515625,66.24994659423828 L480.3172912597656,66.39476776123047 L480.953857421875,66.3038558959961 L481.3516845703125,66.1415023803711 M485.126708984375,58.71132278442383 L485.06524658203125,58.86553955078125 L484.861572265625,59.262245178222656 L484.4482727050781,59.993431091308594 L483.800537109375,61.087772369384766 L482.9578552246094,62.53176498413086 L481.96807861328125,64.26985931396484 L480.9111328125,66.23369598388672 L479.8570861816406,68.33758544921875 L478.87188720703125,70.47887420654297 L478.0184326171875,72.55265045166016 L477.3428039550781,74.45694732666016 L476.89019775390625,76.04003143310547 L476.69354248046875,77.17025756835938 L476.7488098144531,77.77912902832031 L476.9246826171875,77.97380065917969 L477.104248046875,77.94116973876953 M496.570068359375,56.06373977661133 L496.5574035644531,56.323219299316406 L496.51409912109375,56.911014556884766 L496.42657470703125,57.902931213378906 L496.29840087890625,59.267417907714844 L496.160888671875,60.9312744140625 L496.0570068359375,62.76752853393555 L496.03125,64.61297607421875 L496.1156005859375,66.28435516357422 L496.3258056640625,67.61190032958984 L496.67041015625,68.45133972167969 L497.163330078125,68.71981048583984 L497.80511474609375,68.38623809814453 L498.57843017578125,67.48650360107422 L499.4237060546875,66.13456726074219 L500.2557678222656,64.5259780883789 L500.98345947265625,62.88692855834961 L501.5479736328125,61.42351531982422 L501.9305725097656,60.26589584350586 L502.1543273925781,59.49095153808594 L502.259765625,59.142250061035156 L502.29046630859375,59.24512481689453 L502.2759094238281,59.835960388183594 L502.2432861328125,60.90610122680664 L502.23406982421875,62.3590087890625 L502.301513671875,64.02059936523438 L502.518798828125,65.68403625488281 L502.93414306640625,67.11724853515625 L503.5579833984375,68.15103149414062 L504.36370849609375,68.6608657836914 L505.31146240234375,68.57650756835938 L506.35595703125,67.87957763671875 L507.457275390625,66.64443969726562 L508.5399475097656,64.99134826660156 L509.50201416015625,63.09004592895508 L510.2463073730469,61.11280822753906 L510.7099304199219,59.22898864746094 L510.9085693359375,57.59111785888672 L510.9154357910156,56.32279968261719 L510.8426208496094,55.518917083740234 L510.769775390625,55.133819580078125 M519.4140625,60.37712097167969 L519.26513671875,59.8923454284668 L518.9683837890625,59.183250427246094 L518.4822998046875,58.426368713378906 L517.8060913085938,57.905174255371094 L516.9365844726562,57.75136184692383 L515.9067993164062,58.063018798828125 L514.78955078125,58.86177062988281 L513.6893310546875,60.14170455932617 L512.6959838867188,61.787315368652344 L511.91644287109375,63.612754821777344 L511.439697265625,65.40605163574219 L511.314208984375,66.97171020507812 L511.5546875,68.15033721923828 L512.1246948242188,68.83033752441406 L512.94384765625,68.9237289428711 L513.9537963867188,68.40312194824219 L515.1065673828125,67.30461883544922 L516.3300170898438,65.73822784423828 L517.5537109375,63.8790168762207 L518.6928100585938,61.946773529052734 L519.647216796875,60.17112350463867 L520.3516235351562,58.71914291381836 L520.7986450195312,57.705543518066406 L520.9967041015625,57.19120407104492 L520.9940185546875,57.210792541503906 L520.8468017578125,57.78746795654297 L520.5870971679688,58.928192138671875 L520.2610473632812,60.52980041503906 L519.9440307617188,62.431697845458984 L519.722412109375,64.42782592773438 L519.6831665039062,66.3041000366211 L519.895751953125,67.85099792480469 L520.343505859375,68.93557739257812 L520.9572143554688,69.50650787353516 L521.5194091796875,69.68785858154297 L521.8977661132812,69.66573333740234 M524.6687622070312,58.80188751220703 L524.713623046875,58.840362548828125 L524.8346557617188,59.03116989135742 L525.0541381835938,59.46333312988281 L525.3731079101562,60.17836380004883 L525.7748413085938,61.1279411315918 L526.236572265625,62.220027923583984 L526.7432250976562,63.35530471801758 L527.3048095703125,64.43061828613281 L527.91650390625,65.3471450805664 L528.5601806640625,66.03425598144531 L529.094970703125,66.4500732421875 L529.4410400390625,66.63468933105469 M535.8786010742188,59.12181854248047 L535.8150634765625,59.27277374267578 L535.591552734375,59.66482162475586 L535.1259765625,60.39845275878906 L534.3851318359375,61.500064849853516 L533.42529296875,62.963321685791016 L532.3087768554688,64.71795654296875 L531.1265869140625,66.67537689208984 L529.9647827148438,68.75200653076172 L528.8937377929688,70.86277770996094 L527.9657592773438,72.89669799804688 L527.2264404296875,74.75778198242188 L526.7242431640625,76.30268096923828 L526.5023193359375,77.41152954101562 L526.578857421875,78.03996276855469 L526.8055419921875,78.28622436523438 L527.0362548828125,78.30609130859375 M554.9490966796875,60.872398376464844 L554.7334594726562,60.436763763427734 L554.2760009765625,59.83642578125 L553.5262451171875,59.260032653808594 L552.4920654296875,58.974639892578125 L551.1935424804688,59.07894515991211 L549.7074584960938,59.614322662353516 L548.1563720703125,60.554359436035156 L546.7092895507812,61.8531608581543 L545.5467529296875,63.40109634399414 L544.7898559570312,65.03077697753906 L544.5052490234375,66.57146453857422 L544.7117309570312,67.84557342529297 L545.3751220703125,68.6998291015625 L546.4241943359375,69.01927947998047 L547.782470703125,68.7287368774414 L549.332275390625,67.80036926269531 L550.96826171875,66.27892303466797 L552.5927734375,64.25460052490234 L554.1306762695312,61.868709564208984 L555.5082397460938,59.28020477294922 L556.6852416992188,56.64646530151367 L557.6359252929688,54.12764358520508 L558.3530883789062,51.8907470703125 L558.8453979492188,50.068504333496094 L559.1551513671875,48.777923583984375 L559.2914428710938,48.08090591430664 L559.256591796875,48.00042724609375 L559.0743408203125,48.56333541870117 L558.7608642578125,49.78709411621094 L558.35498046875,51.60956954956055 L557.927001953125,53.911354064941406 L557.514404296875,56.51353073120117 L557.1392211914062,59.212547302246094 L556.8443603515625,61.836429595947266 L556.6370849609375,64.24166107177734 L556.5704956054688,66.25881958007812 L556.6952514648438,67.74285888671875 L557.024658203125,68.63861083984375 L557.40185546875,69.03573608398438 L557.70849609375,69.12089538574219 M567.342529296875,60.167213439941406 L567.1104736328125,59.7833137512207 L566.62158203125,59.26884460449219 L565.8413696289062,58.81524658203125 L564.81201171875,58.691497802734375 L563.620849609375,58.99666213989258 L562.396240234375,59.74078369140625 L561.2850952148438,60.84551239013672 L560.4525756835938,62.204315185546875 L560.0296630859375,63.676048278808594 L560.0626220703125,65.10575866699219 L560.5480346679688,66.34697723388672 L561.412353515625,67.26415252685547 L562.5536499023438,67.76132202148438 L563.8660278320312,67.77050018310547 L565.2310791015625,67.2624740600586 L566.5074462890625,66.2518310546875 L567.570556640625,64.82228088378906 L568.316650390625,63.1228141784668 L568.7001953125,61.36628723144531 L568.7288818359375,59.785003662109375 L568.478271484375,58.55683517456055 L568.0606079101562,57.7630615234375 L567.6651000976562,57.365562438964844 L567.4013671875,57.235103607177734 M572.1497802734375,57.72492980957031 L572.063720703125,57.825836181640625 L571.9295654296875,58.13463592529297 L571.7535400390625,58.75957489013672 L571.56884765625,59.74346923828125 L571.388671875,61.057125091552734 L571.22998046875,62.601295471191406 L571.1350708007812,64.22053527832031 L571.1470947265625,65.73519897460938 L571.2943115234375,66.97514343261719 L571.6088256835938,67.78807830810547 L572.0977783203125,68.07592010498047 L572.7569580078125,67.8010482788086 L573.589599609375,67.00254821777344 L574.5318603515625,65.80107879638672 L575.5076904296875,64.40531921386719 L576.4183349609375,63.041221618652344 L577.1541748046875,61.881404876708984 L577.6605224609375,61.045894622802734 L577.9462280273438,60.60471725463867 L578.0187377929688,60.599063873291016 L577.9532470703125,61.0689582824707 L577.8201293945312,62.00212097167969 L577.6952514648438,63.279232025146484 L577.6820068359375,64.7209243774414 L577.8558959960938,66.11503601074219 L578.228271484375,67.28494262695312 L578.7952880859375,68.1144027709961 L579.4993896484375,68.5390625 L580.2745361328125,68.50733947753906 L581.0783081054688,68.00567626953125 L581.8499145507812,67.06151580810547 L582.52734375,65.76691436767578 L583.0557861328125,64.25965881347656 L583.3978271484375,62.6927490234375 L583.54736328125,61.193809509277344 L583.54443359375,59.87541580200195 L583.4429321289062,58.82080841064453 L583.307861328125,58.072174072265625 L583.1947021484375,57.638790130615234 L583.1290283203125,57.453277587890625 M587.4266357421875,58.22472381591797 L587.4324340820312,58.32231903076172 L587.426513671875,58.61608123779297 L587.39208984375,59.211551666259766 L587.3148803710938,60.157230377197266 L587.1925659179688,61.42376708984375 L587.04248046875,62.917266845703125 L586.8961791992188,64.50408935546875 L586.784423828125,66.0132827758789 L586.7228393554688,67.29849243164062 L586.718994140625,68.25216674804688 L586.7677001953125,68.80227661132812 L586.8729858398438,68.90923309326172 L587.06103515625,68.56420135498047 L587.3471069335938,67.7658920288086 L587.7354125976562,66.57438659667969 L588.2327880859375,65.11444091796875 L588.8374633789062,63.53689193725586 L589.54248046875,61.9993782043457 L590.3468627929688,60.63492202758789 L591.2115478515625,59.542327880859375 L592.08837890625,58.79878234863281 L592.9270629882812,58.45765686035156 L593.689453125,58.544410705566406 L594.3521728515625,59.05455780029297 L594.8985595703125,59.95821762084961 L595.3106079101562,61.19395446777344 L595.5830078125,62.66157531738281 L595.7356567382812,64.2320785522461 L595.817626953125,65.7619400024414 L595.8988037109375,67.11778259277344 L596.0343017578125,68.19335174560547 L596.32421875,68.78094482421875 L596.8142700195312,68.73591613769531 L597.51513671875,68.02503204345703 L598.197509765625,67.07872772216797 L598.6927490234375,66.28754425048828 M603.2654418945312,45.430442810058594 L603.29296875,45.61044692993164 L603.3270874023438,46.119041442871094 L603.343505859375,47.090736389160156 L603.3269653320312,48.55629348754883 L603.2844848632812,50.45375061035156 L603.211181640625,52.67353820800781 L603.12060546875,55.088035583496094 L603.0185546875,57.572574615478516 L602.8970947265625,59.99134826660156 L602.7755126953125,62.206974029541016 L602.6749267578125,64.11345672607422 L602.6121215820312,65.5649642944336 L602.605224609375,66.45124816894531 L602.6429443359375,66.7380599975586 L602.6907348632812,66.63848114013672 L602.72802734375,66.40031433105469 M599.304443359375,57.88780975341797 L599.2755126953125,57.68360137939453 L599.39111328125,57.419517517089844 L599.7808837890625,57.17171859741211 L600.57080078125,57.04624938964844 L601.77197265625,57.04729461669922 L603.335693359375,57.14051818847656 L605.1414184570312,57.28541564941406 L607.073486328125,57.4558219909668 L608.9363403320312,57.60914993286133 L610.5728759765625,57.72345733642578 L611.735107421875,57.79051971435547 L612.37744140625,57.81475830078125 M616.9845581054688,59.00651931762695 L616.8189697265625,58.73215103149414 L616.4510498046875,58.34394836425781 L615.8070068359375,57.96146011352539 L614.8900146484375,57.78530502319336 L613.7242431640625,57.9085578918457 L612.4139404296875,58.38679504394531 L611.1041259765625,59.213375091552734 L609.9500732421875,60.36103439331055 L609.084716796875,61.7474479675293 L608.6354370117188,63.26128387451172 L608.655029296875,64.74890899658203 L609.1657104492188,66.07102966308594 L610.1265869140625,67.09624481201172 L611.4365234375,67.73112487792969 L612.9681396484375,67.91815948486328 L614.5821533203125,67.63043212890625 L616.1163330078125,66.88328552246094 L617.4287109375,65.74333190917969 L618.4024658203125,64.32339477539062 L618.9439086914062,62.76365661621094 L619.0244140625,61.2111930847168 L618.66845703125,59.78385543823242 L617.9571533203125,58.572566986083984 L617.0173950195312,57.65560531616211 L616.0217895507812,57.08502960205078 L615.1158447265625,56.85740280151367 L614.4700927734375,56.855682373046875 L614.11962890625,56.94353103637695 M622.072509765625,57.16041564941406 L622.0354614257812,57.293067932128906 L621.9412841796875,57.65943145751953 L621.7688598632812,58.37086868286133 L621.5277709960938,59.45759582519531 L621.25537109375,60.87314987182617 L621.016845703125,62.49293518066406 L620.8930053710938,64.16329193115234 L620.955810546875,65.70137023925781 L621.253662109375,66.95301055908203 L621.8016357421875,67.77091217041016 L622.5614624023438,68.0458755493164 L623.48291015625,67.7144775390625 L624.5067138671875,66.8166732788086 L625.5523681640625,65.45755767822266 L626.5411376953125,63.83696746826172 L627.3876342773438,62.178707122802734 L628.0004272460938,60.69010925292969 L628.3782958984375,59.50663757324219 L628.5611572265625,58.72598648071289 L628.6092529296875,58.383853912353516 L628.5657958984375,58.50239562988281 L628.4415283203125,59.090171813964844 L628.2311401367188,60.13924789428711 L627.997802734375,61.54573440551758 L627.8341674804688,63.1616325378418 L627.8538208007812,64.78380584716797 L628.139404296875,66.21099090576172 L628.7167358398438,67.28549194335938 L629.5570068359375,67.91464233398438 L630.5945434570312,68.02902221679688 L631.737060546875,67.62146759033203 L632.8721313476562,66.7252197265625 L633.9002685546875,65.44132995605469 L634.7293701171875,63.906246185302734 L635.2939453125,62.275569915771484 L635.5866088867188,60.685752868652344 L635.661376953125,59.268836975097656 L635.5999145507812,58.119140625 L635.5084838867188,57.35540771484375 L635.4466552734375,56.96353530883789 M639.5404052734375,58.29420471191406 L639.6387329101562,57.880245208740234 L639.7899780273438,57.3435173034668 L639.94775390625,56.915733337402344 L640.03857421875,56.87928771972656 L640.034912109375,57.332088470458984 L639.9239501953125,58.262176513671875 L639.71240234375,59.55257797241211 L639.4259033203125,61.091339111328125 L639.0858154296875,62.74855422973633 L638.7374267578125,64.36109924316406 L638.4405517578125,65.79851531982422 L638.2278442382812,66.93498992919922 L638.1068115234375,67.67432403564453 L638.0809326171875,67.95982360839844 L638.133544921875,67.76819610595703 L638.2767333984375,67.0931625366211 L638.5345458984375,65.98728942871094 L638.92138671875,64.55460357666016 L639.4451904296875,62.93690490722656 L640.1143188476562,61.28879928588867 L640.9053955078125,59.75148391723633 L641.7891845703125,58.42217254638672 L642.7357177734375,57.387123107910156 L643.704345703125,56.7022705078125 L644.6377563476562,56.409881591796875 L645.4796142578125,56.527435302734375 L646.1632080078125,57.04512405395508 L646.64013671875,57.92509078979492 L646.913330078125,59.105709075927734 L647.0213623046875,60.48921585083008 L647.0069580078125,61.973731994628906 L646.9566040039062,63.45283126831055 L646.945068359375,64.80647277832031 L647.031494140625,65.93851470947266 L647.1725463867188,66.71492004394531 L647.3109130859375,67.12652587890625 " fill="none" stroke="black" stroke-linecap="round" stroke-width="2" /><path d="M0,0 M452.1300964355469,106.07292175292969 L452.0673828125,106.6734390258789 L451.9944763183594,107.88291931152344 L451.9296875,109.77289581298828 L451.8931884765625,112.21736907958984 L451.8899230957031,115.1026840209961 L451.9427490234375,118.22527313232422 L452.1077880859375,121.3259048461914 L452.4405517578125,124.1090316772461 L452.95831298828125,126.29873657226562 L453.62310791015625,127.6790542602539 L454.397705078125,128.16259765625 L455.2415466308594,127.74809265136719 L456.12677001953125,126.4955825805664 L457.01519775390625,124.55172729492188 L457.8565979003906,122.1141128540039 L458.5820007324219,119.39753723144531 L459.1595764160156,116.64018249511719 L459.59368896484375,114.07565307617188 L459.9126281738281,111.8908462524414 L460.1348876953125,110.24954986572266 L460.2803955078125,109.28347778320312 L460.3465881347656,109.0746841430664 L460.32080078125,109.6749496459961 L460.21734619140625,111.11267852783203 L460.07952880859375,113.32087707519531 L459.95050048828125,116.1129150390625 L459.90899658203125,119.20419311523438 L460.0268859863281,122.23365783691406 L460.334716796875,124.85787200927734 L460.84173583984375,126.82643127441406 L461.52423095703125,127.99271392822266 L462.3247985839844,128.28465270996094 L463.19024658203125,127.70480346679688 L464.08795166015625,126.30549621582031 L464.9735412597656,124.21814727783203 L465.8117980957031,121.64325714111328 L466.56781005859375,118.82376861572266 L467.20391845703125,115.99131774902344 L467.6850891113281,113.34114837646484 L468.00506591796875,111.03897094726562 L468.167724609375,109.2243423461914 L468.2014465332031,107.96135711669922 L468.16644287109375,107.22613525390625 L468.14190673828125,106.96571350097656 L468.18365478515625,107.06635284423828 L468.3251953125,107.43219757080078 L468.4998474121094,107.85295104980469 L468.6399230957031,108.17839050292969 M474.0421447753906,116.86058044433594 L473.90283203125,116.4193344116211 L473.62158203125,115.75907897949219 L473.1709899902344,115.07997131347656 L472.5586242675781,114.69445037841797 L471.78204345703125,114.77600860595703 L470.8913269042969,115.41967010498047 L469.9691162109375,116.60641479492188 L469.12237548828125,118.23517608642578 L468.4643249511719,120.14221954345703 L468.0877990722656,122.09352111816406 L468.0338134765625,123.8487548828125 L468.2952880859375,125.19855499267578 L468.8265075683594,126.00682067871094 L469.54132080078125,126.18563079833984 L470.3683776855469,125.70881652832031 L471.256103515625,124.59749603271484 L472.1516418457031,122.95127868652344 L472.98748779296875,120.94780731201172 L473.7003173828125,118.84610748291016 L474.2257995605469,116.91687774658203 L474.55572509765625,115.36100006103516 L474.72357177734375,114.28943634033203 L474.78057861328125,113.74567413330078 L474.7721252441406,113.74090576171875 L474.72821044921875,114.28754425048828 L474.66033935546875,115.40796661376953 L474.58258056640625,117.02832794189453 L474.52191162109375,119.011474609375 L474.501953125,121.152587890625 L474.5540466308594,123.22663116455078 L474.6861572265625,125.03467559814453 L474.92431640625,126.382568359375 L475.26763916015625,127.1346435546875 L475.7088623046875,127.27823638916016 L476.11279296875,127.0673599243164 L476.3976135253906,126.77049255371094 M480.76104736328125,106.2429428100586 L480.76873779296875,106.47045135498047 L480.7786865234375,107.0710678100586 L480.7796630859375,108.18057250976562 L480.7520446777344,109.8163833618164 L480.6802978515625,111.88570404052734 L480.5863952636719,114.25477600097656 L480.49884033203125,116.76284790039062 L480.4665832519531,119.24919128417969 L480.5260009765625,121.52454376220703 L480.6792297363281,123.41197967529297 L480.8507080078125,124.68699645996094 L480.98565673828125,125.35096740722656 M485.4177551269531,107.82637023925781 L485.3629150390625,108.37513732910156 L485.247802734375,109.47671508789062 L485.05419921875,111.1585693359375 L484.8034973144531,113.27208709716797 L484.5288391113281,115.67603302001953 L484.2773132324219,118.20555114746094 L484.09716796875,120.68746948242188 L484.03387451171875,122.92475128173828 L484.0950927734375,124.72219848632812 L484.28070068359375,125.96822357177734 L484.4943542480469,126.65848541259766 L484.6613464355469,126.93416595458984 M490.0978698730469,114.10212707519531 L489.8519592285156,113.86064910888672 L489.354736328125,113.68267059326172 L488.5758056640625,113.78398895263672 L487.5891418457031,114.36547088623047 L486.505615234375,115.38231658935547 L485.48272705078125,116.68561553955078 L484.697265625,118.0706558227539 L484.2986145019531,119.36302947998047 L484.38018798828125,120.42669677734375 L484.9655456542969,121.17538452148438 L486.0172424316406,121.5832748413086 L487.4248046875,121.66842651367188 L489.0439147949219,121.48384094238281 L490.6949462890625,121.10226440429688 L492.21978759765625,120.58354949951172 L493.4954833984375,119.95907592773438 L494.4705505371094,119.2528076171875 L495.1444091796875,118.4961929321289 L495.5699157714844,117.73986053466797 L495.798828125,117.0723876953125 L495.88824462890625,116.58654022216797 L495.8773193359375,116.36203002929688 L495.7987976074219,116.45274353027344 L495.68658447265625,116.91326141357422 L495.588134765625,117.75357818603516 L495.53192138671875,118.93133544921875 L495.5615539550781,120.34281158447266 L495.7052001953125,121.81639099121094 L495.95458984375,123.14484405517578 L496.2685546875,124.18646240234375 L496.5826721191406,124.87944030761719 L496.81610107421875,125.14200592041016 L496.9444274902344,124.96488189697266 L496.9953918457031,124.37838745117188 L497.0044250488281,123.68138122558594 L497.00433349609375,123.12274932861328 M494.69842529296875,107.365234375 L494.7564392089844,107.408203125 L494.8572082519531,107.5608901977539 L494.9640808105469,107.76153564453125 L495.0403137207031,107.9483642578125 M499.697021484375,116.69436645507812 L499.730712890625,117.06668090820312 L499.7752380371094,117.77055358886719 L499.8078308105469,118.8007583618164 L499.81695556640625,120.02532958984375 L499.8263244628906,121.33439636230469 L499.8712158203125,122.58228302001953 L499.96221923828125,123.64754486083984 L500.09698486328125,124.41881561279297 L500.248779296875,124.7959976196289 L500.4117126464844,124.70157623291016 L500.6221618652344,124.10037231445312 L500.93280029296875,123.00861358642578 L501.38934326171875,121.54329681396484 L502.02215576171875,119.8801040649414 L502.82501220703125,118.20046997070312 L503.7560119628906,116.67488861083984 L504.7646179199219,115.44189453125 L505.7755126953125,114.6036148071289 L506.7207946777344,114.22000885009766 L507.5457458496094,114.31515502929688 L508.2078552246094,114.87355041503906 L508.67626953125,115.85411071777344 L508.9463195800781,117.17977142333984 L509.0384521484375,118.77365112304688 L509.0141906738281,120.47164916992188 L508.9574279785156,122.10214233398438 L508.917724609375,123.34323120117188 L508.90997314453125,124.07351684570312 M519.1083984375,117.58786010742188 L519.019775390625,117.13561248779297 L518.7681884765625,116.4884262084961 L518.272705078125,115.82568359375 L517.4905395507812,115.41921997070312 L516.4265747070312,115.37850189208984 L515.1600952148438,115.76891326904297 L513.8358154296875,116.57413482666016 L512.6353759765625,117.72578430175781 L511.75836181640625,119.08032989501953 L511.3641662597656,120.42610931396484 L511.5374755859375,121.55414581298828 L512.2868041992188,122.30818939208984 L513.5272827148438,122.59038543701172 L515.087158203125,122.38237762451172 L516.7595825195312,121.72929382324219 L518.33447265625,120.70516204833984 L519.6444091796875,119.42469787597656 L520.5889282226562,118.03461456298828 L521.1549682617188,116.68096160888672 L521.3809814453125,115.50870513916016 L521.34765625,114.62734985351562 L521.1513061523438,114.10062408447266 L520.8743896484375,113.96633911132812 L520.5869750976562,114.25829315185547 L520.364990234375,114.98860168457031 L520.2608642578125,116.14387512207031 L520.30712890625,117.67327117919922 L520.5126953125,119.49613952636719 L520.8431396484375,121.50682067871094 L521.2449951171875,123.61094665527344 L521.6552734375,125.70455169677734 L521.9983520507812,127.69874572753906 L522.2008666992188,129.51148986816406 L522.2210083007812,131.07940673828125 L522.033447265625,132.3455047607422 L521.6378173828125,133.2886962890625 L521.0477905273438,133.8920135498047 L520.2848510742188,134.17190551757812 L519.3773193359375,134.15736389160156 L518.39111328125,133.8413848876953 L517.4293212890625,133.25177001953125 L516.601318359375,132.46768188476562 L516.0307006835938,131.74249267578125 L515.7342529296875,131.2464599609375 M540.5533447265625,107.84074401855469 L540.22705078125,107.41220092773438 L539.6561279296875,106.83932495117188 L538.8692016601562,106.31739807128906 L537.97607421875,106.11813354492188 L537.03466796875,106.33209228515625 L536.1136474609375,107.0143814086914 L535.256103515625,108.16909790039062 L534.5164184570312,109.79405212402344 L533.9375,111.83596801757812 L533.559814453125,114.19761657714844 L533.4180908203125,116.75202178955078 L533.5181274414062,119.36361694335938 L533.8352661132812,121.8961181640625 L534.307861328125,124.21246337890625 L534.8585205078125,126.19879913330078 L535.4077758789062,127.70996856689453 L535.8757934570312,128.6438751220703 L536.2069091796875,128.9782257080078 L536.392578125,128.92584228515625 L536.4632568359375,128.7259063720703 M528.7310791015625,116.58682250976562 L528.9574584960938,116.526123046875 L529.5191040039062,116.42587280273438 L530.5000610351562,116.3109359741211 L531.9320068359375,116.21979522705078 L533.7137451171875,116.17240905761719 L535.6690673828125,116.16180419921875 L537.2991943359375,116.16986083984375 L538.3429565429688,116.17794036865234 M547.1655883789062,115.67210388183594 L547.0524291992188,115.41007995605469 L546.760009765625,115.02471923828125 L546.2102661132812,114.64446258544922 L545.3684692382812,114.48230743408203 L544.2606201171875,114.68218994140625 L542.98779296875,115.31871795654297 L541.7109985351562,116.35552215576172 L540.6278076171875,117.6850357055664 L539.9130249023438,119.12892150878906 L539.66357421875,120.48846435546875 L539.898193359375,121.592041015625 L540.5569458007812,122.2886962890625 L541.547607421875,122.4855728149414 L542.7598876953125,122.15141296386719 L544.0723876953125,121.31017303466797 L545.3466796875,120.04240417480469 L546.4629516601562,118.50830841064453 L547.3173828125,116.91727447509766 L547.8760375976562,115.49198150634766 L548.1607666015625,114.41304779052734 L548.225341796875,113.79597473144531 L548.1448364257812,113.67733001708984 L548.0010375976562,114.0663070678711 L547.8490600585938,114.93992614746094 L547.7525024414062,116.2127914428711 L547.7697143554688,117.73902893066406 L547.9361572265625,119.33983612060547 L548.329345703125,120.81945037841797 L548.966796875,122.00961303710938 L549.8062133789062,122.8099365234375 L550.5848999023438,123.22854614257812 L551.1248779296875,123.36825561523438 M558.920166015625,113.8970718383789 L558.6549682617188,113.57200622558594 L558.1377563476562,113.1406021118164 L557.3361206054688,112.75299072265625 L556.3221435546875,112.60858154296875 L555.198486328125,112.76486206054688 L554.1365966796875,113.21956634521484 L553.316650390625,113.9210205078125 L552.916259765625,114.816162109375 L553.029052734375,115.82567596435547 L553.6832275390625,116.87114715576172 L554.845703125,117.89544677734375 L556.3886108398438,118.86629486083984 L558.0975341796875,119.78034973144531 L559.705322265625,120.63231658935547 L560.9466552734375,121.39695739746094 L561.6387939453125,122.04592895507812 L561.7178955078125,122.5450210571289 L561.1976928710938,122.88531494140625 L560.1708374023438,123.08053588867188 L558.783447265625,123.14253997802734 L557.2149047851562,123.06565856933594 L555.6698608398438,122.85250091552734 L554.3499755859375,122.51498413085938 L553.5010986328125,121.99799346923828 L553.2864379882812,121.27729797363281 L553.745849609375,120.35371398925781 L554.484619140625,119.48816680908203 L555.1388549804688,118.87271118164062 M565.63525390625,105.0 L565.5440673828125,105.51664733886719 L565.41162109375,106.51438903808594 L565.2725830078125,107.99462890625 L565.16943359375,109.81609344482422 L565.1300048828125,111.87578582763672 L565.1591796875,114.0477294921875 L565.2640380859375,116.22086334228516 L565.4696044921875,118.2603759765625 L565.7735595703125,119.99629974365234 L566.123046875,121.3271255493164 L566.4681396484375,122.19197082519531 L566.70166015625,122.51020812988281 L566.751953125,122.28762817382812 L566.6224365234375,121.58968353271484 L566.422119140625,120.77352142333984 L566.2446899414062,120.13911437988281 " fill="none" stroke="black" stroke-linecap="round" stroke-width="2" /><path d="M0,0 M459.331787109375,169.48098754882812 L459.2552795410156,170.09368896484375 L459.14251708984375,171.2457733154297 L459.0020751953125,172.92962646484375 L458.8725891113281,174.98614501953125 L458.7719421386719,177.32974243164062 L458.7197570800781,179.84390258789062 L458.7272033691406,182.42190551757812 L458.8139343261719,184.9315948486328 L458.9592590332031,187.20326232910156 L459.14306640625,189.10726928710938 L459.3312072753906,190.53759765625 L459.49237060546875,191.32940673828125 L459.5997009277344,191.4106903076172 L459.6583251953125,190.83071899414062 L459.6787109375,190.01100158691406 L459.68048095703125,189.32315063476562 M451.21685791015625,169.7991485595703 L451.3616943359375,169.55001831054688 L451.8698425292969,169.12579345703125 L452.919921875,168.5465545654297 L454.5898132324219,167.88827514648438 L456.8293762207031,167.18646240234375 L459.494384765625,166.50144958496094 L462.3952941894531,165.89578247070312 L465.3460998535156,165.43899536132812 L468.10137939453125,165.15623474121094 L470.4400634765625,165.02798461914062 L472.06646728515625,165.0 L472.94183349609375,165.01341247558594 M453.90728759765625,180.50489807128906 L454.22613525390625,180.42745971679688 L454.9276428222656,180.23341369628906 L456.0502624511719,179.9100341796875 L457.5457458496094,179.49093627929688 L459.28204345703125,179.0634002685547 L461.09857177734375,178.70547485351562 L462.572021484375,178.47242736816406 L463.50299072265625,178.36007690429688 M473.06011962890625,180.01463317871094 L472.788330078125,179.61651611328125 L472.2572937011719,179.08566284179688 L471.428466796875,178.6260223388672 L470.3579406738281,178.54217529296875 L469.1078796386719,178.95680236816406 L467.8092956542969,179.91075134277344 L466.6298828125,181.326416015625 L465.74493408203125,183.0666046142578 L465.2747802734375,184.91204833984375 L465.2660217285156,186.6364288330078 L465.68798828125,188.02381896972656 L466.453369140625,188.9102783203125 L467.4535827636719,189.2003936767578 L468.5906982421875,188.8780517578125 L469.7779235839844,187.98020935058594 L470.9331970214844,186.6133270263672 L471.981201171875,184.9401092529297 L472.8531188964844,183.14659118652344 L473.5075988769531,181.4407501220703 L473.9421081542969,180.02096557617188 L474.1813659667969,179.04092407226562 L474.2789001464844,178.5989990234375 L474.2769470214844,178.7362823486328 L474.21197509765625,179.44711303710938 L474.1108703613281,180.68319702148438 L473.98638916015625,182.3295440673828 L473.85858154296875,184.22543334960938 L473.7970886230469,186.1778564453125 L473.84564208984375,187.9629364013672 L474.04278564453125,189.4154510498047 L474.292724609375,190.3784942626953 L474.4987487792969,190.86488342285156 M483.7662048339844,178.53286743164062 L483.55706787109375,178.1981964111328 L483.1134033203125,177.82666015625 L482.3929443359375,177.63050842285156 L481.4405517578125,177.86463928222656 L480.3335876464844,178.57577514648438 L479.2283935546875,179.7296905517578 L478.2855224609375,181.20443725585938 L477.6644287109375,182.8810577392578 L477.4794616699219,184.59861755371094 L477.7839050292969,186.19381713867188 L478.564208984375,187.5121307373047 L479.81817626953125,188.39834594726562 L481.44293212890625,188.77662658691406 L483.2662048339844,188.6768035888672 L484.8067932128906,188.35121154785156 L485.79669189453125,188.0324249267578 M488.29150390625,183.40951538085938 L488.61468505859375,183.32904052734375 L489.210205078125,183.10752868652344 L490.0622863769531,182.69142150878906 L491.04632568359375,182.060302734375 L492.05181884765625,181.2269287109375 L492.9573669433594,180.2346954345703 L493.6593322753906,179.15713500976562 L494.0594177246094,178.0892333984375 L494.1064758300781,177.1674041748047 L493.7767639160156,176.5379638671875 L493.0897521972656,176.33262634277344 L492.1180114746094,176.6345977783203 L490.9774169921875,177.46389770507812 L489.82098388671875,178.75775146484375 L488.8262939453125,180.3930206298828 L488.14837646484375,182.20249938964844 L487.9216613769531,184.00363159179688 L488.22540283203125,185.61398315429688 L489.0401916503906,186.89576721191406 L490.3448181152344,187.69049072265625 L492.01202392578125,187.92333984375 L493.8542175292969,187.6204071044922 L495.3966369628906,187.09934997558594 L496.38665771484375,186.6327667236328 M501.16180419921875,176.27987670898438 L500.8774719238281,175.9701690673828 L500.29412841796875,175.63206481933594 L499.3873596191406,175.45265197753906 L498.2632751464844,175.63648986816406 L497.0771484375,176.17828369140625 L496.03753662109375,176.98976135253906 L495.3675842285156,177.9355010986328 L495.2470703125,178.9061737060547 L495.77252197265625,179.7979278564453 L496.9568786621094,180.5444793701172 L498.70166015625,181.12875366210938 L500.82379150390625,181.5912322998047 L503.06158447265625,181.99964904785156 L505.1353759765625,182.406005859375 L506.80120849609375,182.84271240234375 L507.90582275390625,183.30772399902344 L508.37896728515625,183.7900848388672 L508.23138427734375,184.2870635986328 L507.5063781738281,184.796142578125 L506.28253173828125,185.29522705078125 L504.6900329589844,185.75726318359375 L502.90447998046875,186.13693237304688 L501.140869140625,186.3918914794922 L499.6151428222656,186.50550842285156 L498.4925537109375,186.50784301757812 L497.8067321777344,186.4468994140625 L497.5028381347656,186.3773193359375 L497.45843505859375,186.3388214111328 L497.55340576171875,186.33668518066406 L497.67205810546875,186.351318359375 L497.76544189453125,186.36907958984375 M519.85595703125,178.70721435546875 L519.8544921875,178.9037628173828 L519.8910522460938,179.3878173828125 L519.989990234375,180.25753784179688 L520.1519165039062,181.532958984375 L520.3536987304688,183.1913299560547 L520.558349609375,185.1529541015625 L520.732177734375,187.3072509765625 L520.8706665039062,189.48326110839844 L520.980712890625,191.45736694335938 L521.0693969726562,193.0370635986328 L521.1482543945312,194.10572814941406 L521.2176513671875,194.58799743652344 L521.2347412109375,194.46347045898438 L521.179931640625,193.71839904785156 L521.03759765625,192.35955810546875 L520.8092651367188,190.50930786132812 L520.5170288085938,188.3651580810547 L520.2278442382812,186.11231994628906 L519.9916381835938,183.89419555664062 L519.9068603515625,181.7935028076172 L520.0631103515625,179.86817932128906 L520.5187377929688,178.2008056640625 L521.2884521484375,176.87979125976562 L522.3710327148438,175.9882354736328 L523.7039184570312,175.57394409179688 L525.2023315429688,175.64022827148438 L526.7421264648438,176.14590454101562 L528.1612548828125,177.0030059814453 L529.3134155273438,178.1011962890625 L530.0850219726562,179.33583068847656 L530.4057006835938,180.6134796142578 L530.2351684570312,181.84510803222656 L529.5673828125,182.94329833984375 L528.4340209960938,183.8309783935547 L526.9495239257812,184.46910095214844 L525.3009033203125,184.82217407226562 L523.747802734375,184.906982421875 L522.5051879882812,184.7748260498047 L521.72021484375,184.56407165527344 L521.3555908203125,184.38282775878906 M538.7261352539062,177.5792236328125 L538.6218872070312,177.20130920410156 L538.3515625,176.6785888671875 L537.841796875,176.1868896484375 L537.083740234375,175.9932403564453 L536.1290893554688,176.219482421875 L535.0992431640625,176.9204864501953 L534.1333618164062,178.0397491455078 L533.3925170898438,179.46810913085938 L532.9986572265625,181.01976013183594 L533.0282592773438,182.48248291015625 L533.5186157226562,183.65216064453125 L534.43896484375,184.3775634765625 L535.6824951171875,184.55764770507812 L537.1197509765625,184.17803955078125 L538.5758666992188,183.27842712402344 L539.8680419921875,181.96493530273438 L540.8749389648438,180.39186096191406 L541.5194702148438,178.77120971679688 L541.7965087890625,177.30599975585938 L541.7775268554688,176.18914794921875 L541.5530395507812,175.5382843017578 L541.2232666015625,175.4137420654297 L540.8685302734375,175.82041931152344 L540.5499877929688,176.73793029785156 L540.3369750976562,178.0616912841797 L540.309326171875,179.63856506347656 L540.5157470703125,181.26246643066406 L541.0311889648438,182.70021057128906 L541.830810546875,183.76287841796875 L542.835205078125,184.37255859375 L543.73583984375,184.6043243408203 L544.3455200195312,184.61705017089844 M550.5521850585938,173.71737670898438 L549.99169921875,173.65966796875 L549.0584716796875,173.72088623046875 L547.8858642578125,174.00936889648438 L546.7847290039062,174.59014892578125 L545.9580688476562,175.39895629882812 L545.5936889648438,176.3213653564453 L545.7915649414062,177.23583984375 L546.5911865234375,178.071044921875 L547.9378662109375,178.78390502929688 L549.6680297851562,179.38043212890625 L551.5369873046875,179.90907287597656 L553.2672119140625,180.42120361328125 L554.6039428710938,180.97117614746094 L555.3716430664062,181.57913208007812 L555.5037231445312,182.2387237548828 L555.0205078125,182.9148712158203 L554.0185546875,183.55638122558594 L552.651611328125,184.11451721191406 L551.106689453125,184.56178283691406 L549.56640625,184.86122131347656 L548.2086181640625,185.00759887695312 L547.156494140625,185.0157928466797 L546.4901733398438,184.95053100585938 L546.1707763671875,184.8770294189453 M562.3045654296875,173.84291076660156 L562.1032104492188,173.56686401367188 L561.62744140625,173.2511444091797 L560.814697265625,173.0694122314453 L559.7297973632812,173.22682189941406 L558.5280151367188,173.74725341796875 L557.4410400390625,174.57411193847656 L556.7141723632812,175.58615112304688 L556.5421752929688,176.67161560058594 L557.0293579101562,177.72259521484375 L558.1785888671875,178.66720581054688 L559.8534545898438,179.46620178222656 L561.8334350585938,180.12765502929688 L563.8319702148438,180.6839599609375 L565.56298828125,181.1702423095703 L566.7911987304688,181.61497497558594 L567.3587646484375,182.04026794433594 L567.178955078125,182.45388793945312 L566.266845703125,182.8516387939453 L564.7349243164062,183.2285919189453 L562.7597045898438,183.55023193359375 L560.614501953125,183.78672790527344 L558.573974609375,183.9207305908203 L557.044921875,183.97000122070312 L556.1622314453125,183.9667205810547 " fill="none" stroke="black" stroke-linecap="round" stroke-width="2" /><path d="M0,0 M403.69952392578125,228.30833435058594 L403.6695556640625,228.26791381835938 L403.5895080566406,228.36383056640625 L403.429931640625,228.75904846191406 L403.1629638671875,229.6033172607422 L402.7802429199219,230.94000244140625 L402.280517578125,232.74554443359375 L401.6639709472656,234.96173095703125 L400.933349609375,237.4996337890625 L400.107177734375,240.2305145263672 L399.21795654296875,242.98934936523438 L398.343017578125,245.5813751220703 L397.5876159667969,247.76048278808594 L397.03948974609375,249.33824157714844 L396.7433166503906,250.2251434326172 L396.64959716796875,250.55474853515625 L396.6634521484375,250.5655975341797 M403.6146240234375,227.2749481201172 L403.73101806640625,227.2097625732422 L403.9176940917969,227.3433074951172 L404.1651916503906,227.88169860839844 L404.440185546875,228.98699951171875 L404.7476501464844,230.62945556640625 L405.0813293457031,232.69647216796875 L405.4501953125,235.0418701171875 L405.8286437988281,237.52484130859375 L406.20343017578125,239.99667358398438 L406.5615234375,242.3280487060547 L406.88946533203125,244.3974151611328 L407.15765380859375,246.07208251953125 L407.3455505371094,247.2615966796875 L407.4170227050781,247.92738342285156 L407.4045104980469,248.17616271972656 L407.3572998046875,248.18661499023438 M400.0638732910156,239.40338134765625 L400.21722412109375,239.3776397705078 L400.61700439453125,239.3346405029297 L401.3362121582031,239.2757568359375 L402.4341125488281,239.18402099609375 L403.8544921875,239.0413055419922 L405.459716796875,238.8349609375 L406.8208312988281,238.630126953125 L407.7043151855469,238.47885131835938 M413.1558837890625,235.4681854248047 L413.13201904296875,235.81813049316406 L413.08770751953125,236.52117919921875 L413.0220947265625,237.6143798828125 L412.9403381347656,239.01779174804688 L412.84814453125,240.64401245117188 L412.76055908203125,242.37295532226562 L412.69097900390625,244.06076049804688 L412.646484375,245.53732299804688 L412.6319580078125,246.6708984375 L412.64105224609375,247.3657684326172 L412.67791748046875,247.56637573242188 L412.76312255859375,247.2517547607422 L412.9278259277344,246.4253692626953 L413.21063232421875,245.1271209716797 L413.6510314941406,243.48548889160156 L414.26776123046875,241.6769561767578 L415.06573486328125,239.8885955810547 L416.0146179199219,238.2729949951172 L417.061767578125,236.94537353515625 L418.1434326171875,235.98182678222656 L419.1915283203125,235.44789123535156 L420.15032958984375,235.3875732421875 L420.9785461425781,235.8090362548828 L421.6395568847656,236.68101501464844 L422.1239929199219,237.93748474121094 L422.4418029785156,239.47328186035156 L422.6102600097656,241.15699768066406 L422.6898193359375,242.86634826660156 L422.7427978515625,244.45724487304688 L422.82745361328125,245.81759643554688 L422.93182373046875,246.77247619628906 L423.02783203125,247.29579162597656 M433.9676208496094,240.48680114746094 L433.8877258300781,240.06732177734375 L433.6400146484375,239.43728637695312 L433.1421813964844,238.74078369140625 L432.3594055175781,238.21974182128906 L431.32354736328125,237.99545288085938 L430.11102294921875,238.14895629882812 L428.85174560546875,238.7159881591797 L427.67767333984375,239.69189453125 L426.72515869140625,241.00772094726562 L426.1011962890625,242.53656005859375 L425.87432861328125,244.12855529785156 L426.05804443359375,245.60064697265625 L426.64990234375,246.79367065429688 L427.5946044921875,247.55410766601562 L428.8189392089844,247.76177978515625 L430.21435546875,247.3406219482422 L431.6657409667969,246.2678985595703 L433.0514831542969,244.56704711914062 L434.3013916015625,242.34666442871094 L435.3687744140625,239.76573181152344 L436.2442321777344,237.01956176757812 L436.9312744140625,234.30795288085938 L437.4400634765625,231.8064422607422 L437.78314208984375,229.66078186035156 L437.99700927734375,227.98130798339844 L438.108154296875,226.84793090820312 L438.13983154296875,226.31777954101562 L438.1065979003906,226.43069458007812 L438.0070495605469,227.2053985595703 L437.86492919921875,228.6348114013672 L437.72161865234375,230.6255340576172 L437.6259460449219,233.0290985107422 L437.62762451171875,235.65597534179688 L437.764404296875,238.30177307128906 L438.0389099121094,240.77700805664062 L438.4739990234375,242.93089294433594 L439.0493469238281,244.6298065185547 L439.72894287109375,245.81861877441406 L440.324462890625,246.50172424316406 L440.7242126464844,246.79490661621094 M455.1443176269531,227.59228515625 L455.1426696777344,227.66433715820312 L455.1390380859375,227.9541473388672 L455.1270751953125,228.5937042236328 L455.1020202636719,229.64990234375 L455.06854248046875,231.09266662597656 L455.0247497558594,232.85397338867188 L454.98272705078125,234.846435546875 L454.9276428222656,236.9838104248047 L454.8457946777344,239.17999267578125 L454.7337646484375,241.3175048828125 L454.60992431640625,243.28237915039062 L454.5213623046875,244.9516143798828 L454.51043701171875,246.20191955566406 L454.58740234375,246.99032592773438 L454.7003479003906,247.37478637695312 L454.7972717285156,247.4842529296875 M461.13836669921875,225.0 L461.1854553222656,225.32887268066406 L461.20416259765625,225.99400329589844 L461.167236328125,227.00108337402344 L461.08123779296875,228.24827575683594 L461.0140075683594,229.59690856933594 L461.0170593261719,230.90200805664062 L461.07611083984375,231.90298461914062 L461.1437072753906,232.49966430664062 M467.8572082519531,238.83837890625 L467.8314208984375,239.16639709472656 L467.7597961425781,239.88490295410156 L467.62994384765625,241.04685974121094 L467.4552001953125,242.54833984375 L467.26446533203125,244.2058868408203 L467.1023864746094,245.80575561523438 L466.9936828613281,247.16111755371094 L466.94793701171875,248.13619995117188 L466.9549560546875,248.62559509277344 L467.01202392578125,248.55224609375 L467.1228332519531,247.85733032226562 L467.3238830566406,246.56248474121094 L467.66339111328125,244.8181610107422 L468.18603515625,242.8708038330078 L468.9057922363281,240.99197387695312 L469.80877685546875,239.41873168945312 L470.84320068359375,238.2946319580078 L471.9419250488281,237.69735717773438 L473.0211486816406,237.6623992919922 L473.9906921386719,238.17300415039062 L474.76470947265625,239.16659545898438 L475.291015625,240.5345916748047 L475.5513000488281,242.1126251220703 L475.5859680175781,243.70034790039062 L475.46929931640625,245.1044158935547 L475.28497314453125,246.1820068359375 L475.106201171875,246.8532257080078 L474.998779296875,247.08013916015625 L474.99603271484375,246.83111572265625 L475.1600036621094,246.08303833007812 L475.562255859375,244.87242126464844 L476.261474609375,243.35182189941406 L477.2775573730469,241.7372589111328 L478.569580078125,240.24151611328125 L480.0188903808594,239.0261993408203 L481.5116271972656,238.20040893554688 L482.9241638183594,237.82150268554688 L484.1710205078125,237.93980407714844 L485.1837463378906,238.5579833984375 L485.91644287109375,239.62594604492188 L486.34515380859375,241.0411376953125 L486.50726318359375,242.66944885253906 L486.4579162597656,244.3485870361328 L486.31689453125,245.91427612304688 L486.1854553222656,247.208984375 L486.1421203613281,248.14022827148438 L486.1705322265625,248.67999267578125 L486.2305908203125,248.90802001953125 M500.33477783203125,225.49790954589844 L500.3977966308594,225.74276733398438 L500.48321533203125,226.35342407226562 L500.547607421875,227.4561767578125 L500.5315856933594,229.07464599609375 L500.4078369140625,231.16046142578125 L500.1701965332031,233.5991973876953 L499.8622131347656,236.24270629882812 L499.53704833984375,238.9160919189453 L499.24835205078125,241.4221954345703 L499.0355224609375,243.56275939941406 L498.9085388183594,245.21058654785156 L498.8558654785156,246.29673767089844 L498.86480712890625,246.80679321289062 L498.9355163574219,246.75120544433594 L499.10894775390625,246.1269989013672 L499.4577331542969,244.9303741455078 L500.0523681640625,243.2656707763672 L500.92962646484375,241.31996154785156 L502.0521545410156,239.34405517578125 L503.33941650390625,237.608642578125 L504.6817626953125,236.32044982910156 L505.97393798828125,235.59840393066406 L507.124267578125,235.501220703125 L508.05499267578125,236.02032470703125 L508.69140625,237.093994140625 L509.0100402832031,238.6279296875 L509.02435302734375,240.4651641845703 L508.8296203613281,242.41058349609375 L508.56884765625,244.22955322265625 L508.37548828125,245.7158660888672 L508.2878112792969,246.69126892089844 L508.2876892089844,247.1783447265625 M517.8591918945312,238.57479858398438 L517.7542114257812,238.15048217773438 L517.4685668945312,237.5748748779297 L516.9385986328125,237.05941772460938 L516.1600952148438,236.91122436523438 L515.1865234375,237.24642944335938 L514.0882568359375,238.06983947753906 L513.0047607421875,239.2858123779297 L512.0884399414062,240.76254272460938 L511.491455078125,242.3268585205078 L511.3393249511719,243.814453125 L511.671875,245.06117248535156 L512.4456176757812,245.9347381591797 L513.571044921875,246.33778381347656 L514.9126586914062,246.21180725097656 L516.3018188476562,245.53732299804688 L517.5809326171875,244.3785400390625 L518.5902099609375,242.86634826660156 L519.2222900390625,241.2154998779297 L519.4322509765625,239.64256286621094 L519.2589111328125,238.3206787109375 L518.8215942382812,237.32815551757812 L518.2891235351562,236.6668701171875 L517.8501586914062,236.2943572998047 L517.5931396484375,236.13385009765625 M521.8944702148438,234.73776245117188 L521.911376953125,234.96649169921875 L521.9251708984375,235.50611877441406 L521.9127197265625,236.43832397460938 L521.8573608398438,237.73773193359375 L521.7545166015625,239.3268280029297 L521.6318969726562,241.05593872070312 L521.5271606445312,242.73565673828125 L521.47509765625,244.18675231933594 L521.4876708984375,245.2467803955078 L521.5661010742188,245.7995147705078 L521.7009887695312,245.79624938964844 L521.9049072265625,245.20547485351562 L522.19873046875,244.04873657226562 L522.6171264648438,242.44691467285156 L523.1856079101562,240.58372497558594 L523.9169311523438,238.68539428710938 L524.7866821289062,236.96240234375 L525.760498046875,235.56851196289062 L526.774169921875,234.6142120361328 L527.7650146484375,234.18310546875 L528.6602783203125,234.31910705566406 L529.391845703125,235.01052856445312 L529.881591796875,236.18540954589844 L530.1051025390625,237.71865844726562 L530.0829467773438,239.42132568359375 L529.895263671875,241.07249450683594 L529.6444091796875,242.4586181640625 L529.43212890625,243.38792419433594 L529.328857421875,243.73130798339844 L529.3844604492188,243.44044494628906 L529.6527099609375,242.53555297851562 L530.1695556640625,241.13687133789062 L530.9531860351562,239.46812438964844 L531.9698486328125,237.78868103027344 L533.1363525390625,236.3309326171875 L534.3258056640625,235.26560974121094 L535.432373046875,234.67050170898438 L536.3662719726562,234.5711212158203 L537.0751953125,234.969482421875 L537.5214233398438,235.83456420898438 L537.6934814453125,237.09214782714844 L537.6271362304688,238.64097595214844 L537.4066772460938,240.3294677734375 L537.19482421875,241.95706176757812 L537.13671875,243.31338500976562 L537.311767578125,244.23951721191406 L537.5941162109375,244.71827697753906 L537.8529663085938,244.8712615966797 M540.1021118164062,242.30465698242188 L540.3612670898438,242.1702117919922 L540.900634765625,241.84988403320312 L541.7427978515625,241.27987670898438 L542.80322265625,240.44053649902344 L543.9674072265625,239.3627471923828 L545.0914916992188,238.11416625976562 L546.034912109375,236.8013458251953 L546.688720703125,235.55474853515625 L546.9736938476562,234.50234985351562 L546.8468017578125,233.74545288085938 L546.3095703125,233.38897705078125 L545.4148559570312,233.51576232910156 L544.2671508789062,234.17298889160156 L543.042236328125,235.34080505371094 L541.9431762695312,236.91256713867188 L541.1660766601562,238.7082061767578 L540.8461303710938,240.5309295654297 L541.031005859375,242.20608520507812 L541.6715698242188,243.60777282714844 L542.7536010742188,244.61166381835938 L544.1822509765625,245.1456298828125 L545.839111328125,245.2200469970703 L547.275146484375,245.0375518798828 L548.227294921875,244.80245971679688 M551.0106201171875,239.44891357421875 L551.0564575195312,239.39254760742188 L551.249267578125,239.2850341796875 L551.6807250976562,239.1173095703125 L552.400146484375,238.90213012695312 L553.39013671875,238.65870666503906 L554.5625610351562,238.42941284179688 L555.813720703125,238.26492309570312 L557.0172729492188,238.19949340820312 L558.0633544921875,238.2376708984375 L558.8837890625,238.3551025390625 L559.4169921875,238.48318481445312 L559.685791015625,238.57672119140625 M564.15087890625,227.7855224609375 L564.1985473632812,227.8634796142578 L564.23388671875,228.19305419921875 L564.2083740234375,228.93154907226562 L564.0609130859375,230.1516876220703 L563.7938842773438,231.80105590820312 L563.4407958984375,233.76486206054688 L563.0451049804688,235.9046630859375 L562.6443481445312,238.075927734375 L562.275634765625,240.1110076904297 L561.9534912109375,241.83709716796875 L561.713623046875,243.10870361328125 L561.5728149414062,243.8299102783203 L561.5333862304688,243.96681213378906 L561.6080932617188,243.5352783203125 L561.8431396484375,242.5738983154297 L562.2900390625,241.20645141601562 L563.0090942382812,239.6187286376953 L564.0029296875,238.02880859375 L565.2243041992188,236.63919067382812 L566.5865478515625,235.62376403808594 L567.9884033203125,235.07659912109375 L569.3253784179688,235.05726623535156 L570.502685546875,235.5628204345703 L571.4229736328125,236.54684448242188 L571.9983520507812,237.9027099609375 L572.159423828125,239.4965362548828 L571.867431640625,241.15528869628906 L571.148193359375,242.71873474121094 L570.0580444335938,244.03216552734375 L568.70068359375,244.99537658691406 L567.2069091796875,245.56777954101562 L565.7440185546875,245.71336364746094 L564.4883422851562,245.46124267578125 L563.5913696289062,244.90480041503906 L563.0872802734375,244.31129455566406 L562.8953247070312,243.87168884277344 M578.8519287109375,238.65318298339844 L578.7425537109375,238.1810302734375 L578.46240234375,237.44229125976562 L577.9402465820312,236.60093688964844 L577.1592407226562,235.94789123535156 L576.1315307617188,235.63369750976562 L574.929931640625,235.77175903320312 L573.666748046875,236.3757781982422 L572.4931640625,237.4153594970703 L571.568115234375,238.8006134033203 L571.0327758789062,240.37767028808594 L570.9537963867188,241.93991088867188 L571.345947265625,243.28219604492188 L572.1678466796875,244.2378387451172 L573.3345336914062,244.7012939453125 L574.7286987304688,244.6454620361328 L576.1986083984375,244.11415100097656 L577.5691528320312,243.1750030517578 L578.6875610351562,241.93431091308594 L579.4674072265625,240.53773498535156 L579.878173828125,239.1305389404297 L579.9718627929688,237.86940002441406 L579.8463745117188,236.88211059570312 L579.6126708984375,236.20919799804688 L579.4197998046875,235.86383056640625 L579.391845703125,235.809814453125 L579.5663452148438,235.96243286132812 L579.828857421875,236.17935180664062 L580.0603637695312,236.35877990722656 M584.3517456054688,235.75338745117188 L584.483154296875,235.62147521972656 L584.6000366210938,235.55648803710938 L584.6090087890625,235.71707153320312 L584.4249267578125,236.27316284179688 L584.0874633789062,237.2666778564453 L583.6781005859375,238.62237548828125 L583.30859375,240.18377685546875 L583.0638427734375,241.78070068359375 L583.0123901367188,243.21640014648438 L583.19970703125,244.3388214111328 L583.6610717773438,245.0509796142578 L584.4020385742188,245.2761688232422 L585.3958129882812,244.9703826904297 L586.57763671875,244.14283752441406 L587.8429565429688,242.85690307617188 L589.0775756835938,241.2570343017578 L590.1814575195312,239.5621795654297 L591.0718994140625,237.99951171875 L591.70068359375,236.73150634765625 L592.0630493164062,235.87452697753906 L592.1770629882812,235.4936065673828 L592.0859375,235.61715698242188 L591.8320922851562,236.2666473388672 L591.459228515625,237.41664123535156 L591.032470703125,238.92398071289062 L590.6471557617188,240.60057067871094 L590.3944702148438,242.2355194091797 L590.3825073242188,243.59152221679688 L590.644287109375,244.51312255859375 L591.141357421875,244.9439697265625 L591.6563720703125,245.0126190185547 L592.033935546875,244.91233825683594 M596.447509765625,236.2263641357422 L596.468994140625,235.98190307617188 L596.49658203125,235.78964233398438 L596.502685546875,235.85528564453125 L596.4591674804688,236.40098571777344 L596.3355712890625,237.42819213867188 L596.1265258789062,238.8357391357422 L595.8536987304688,240.4262237548828 L595.564453125,242.0032958984375 L595.2973022460938,243.36280822753906 L595.101806640625,244.36459350585938 L595.0088500976562,244.90081787109375 L595.04345703125,244.91555786132812 L595.2479248046875,244.38111877441406 L595.6575927734375,243.31089782714844 L596.2882080078125,241.80836486816406 L597.1439208984375,240.0592803955078 L598.1940307617188,238.28131103515625 L599.3553466796875,236.68795776367188 L600.54150390625,235.4496307373047 L601.65087890625,234.6734161376953 L602.6181030273438,234.424072265625 L603.4138793945312,234.72018432617188 L604.0303955078125,235.53515625 L604.442138671875,236.78457641601562 L604.6458740234375,238.35426330566406 L604.6361083984375,240.0938262939453 L604.490478515625,241.85406494140625 L604.3184814453125,243.47787475585938 L604.2369384765625,244.8400115966797 L604.2472534179688,245.7725067138672 L604.3130493164062,246.27023315429688 M614.4947509765625,239.94082641601562 L614.5772094726562,239.53509521484375 L614.6121826171875,238.93309020996094 L614.4901123046875,238.2725830078125 L614.0908203125,237.76792907714844 L613.3822631835938,237.51080322265625 L612.388916015625,237.56588745117188 L611.2034301757812,237.97067260742188 L609.9262084960938,238.733154296875 L608.7063598632812,239.82130432128906 L607.6852416992188,241.13717651367188 L606.9939575195312,242.56739807128906 L606.7147827148438,243.96713256835938 L606.8795776367188,245.20030212402344 L607.4462890625,246.1274871826172 L608.3653564453125,246.6392364501953 L609.5553588867188,246.64564514160156 L610.938232421875,246.1001434326172 L612.4208984375,244.99520874023438 L613.8997802734375,243.3689727783203 L615.2752685546875,241.32789611816406 L616.4879150390625,239.01895141601562 L617.4942016601562,236.60755920410156 L618.2890625,234.25999450683594 L618.8832397460938,232.15530395507812 L619.2900390625,230.41563415527344 L619.531982421875,229.14634704589844 L619.63525390625,228.4083251953125 L619.6129150390625,228.23614501953125 L619.4747924804688,228.65771484375 L619.2191162109375,229.71923828125 L618.856201171875,231.37625122070312 L618.4110717773438,233.52279663085938 L617.9305419921875,235.9770050048828 L617.489013671875,238.52816772460938 L617.1611938476562,240.9953155517578 L617.0092163085938,243.2329864501953 L617.0604858398438,245.09375 L617.2960815429688,246.48480224609375 L617.5744018554688,247.33761596679688 L617.7923583984375,247.72923278808594 " fill="none" stroke="black" stroke-linecap="round" stroke-width="2" /></svg>